<svg width="32" height="32" viewBox="0 0 32 32" fill="none" xmlns="http://www.w3.org/2000/svg">
<circle cx="16" cy="16" r="16" fill="white"/>
<path d="M19.5136 7.27317C19.007 7.27317 18.5726 7.06419 18.2105 6.64624C17.8484 6.22827 17.6674 5.72583 17.6674 5.13893C17.6674 4.552 17.8477 4.04878 18.2085 3.62927C18.5693 3.20976 19.003 3 19.5096 3C20.0162 3 20.4505 3.20898 20.8126 3.62693C21.1747 4.0449 21.3558 4.54734 21.3558 5.13424C21.3558 5.72117 21.1754 6.22439 20.8147 6.6439C20.4539 7.06341 20.0202 7.27317 19.5136 7.27317ZM14.5347 13.3024L16.7832 16.0829V23.3122H15.2674V17.4585L11.8316 13.9756C11.68 13.8195 11.5537 13.6098 11.4526 13.3463C11.3516 13.0829 11.3011 12.8146 11.3011 12.5415C11.3011 12.2683 11.3558 12.0049 11.4653 11.7512C11.5747 11.4976 11.6968 11.2927 11.8316 11.1366L14.8379 7.65366C14.9726 7.49756 15.1621 7.3561 15.4063 7.22927C15.6505 7.10244 15.9074 7.03902 16.1768 7.03902C16.4463 7.03902 16.7032 7.10244 16.9474 7.22927C17.1916 7.3561 17.3811 7.49756 17.5158 7.65366L19.4863 9.93659C19.9411 10.4634 20.4845 10.9171 21.1168 11.2976C21.749 11.678 22.4602 11.8683 23.2505 11.8683V13.6244C22.2473 13.6244 21.3397 13.4049 20.5276 12.9659C19.7155 12.5268 18.9895 11.9366 18.3495 11.1951L17.3389 10.0244L14.5347 13.3024ZM8.92854 15.5854C10.325 15.5854 11.4947 16.1326 12.4379 17.227C13.3811 18.3213 13.8526 19.6774 13.8526 21.2953C13.8526 22.9131 13.3803 24.2683 12.4357 25.361C11.491 26.4537 10.3205 27 8.92409 27C7.52768 27 6.35789 26.4528 5.41474 25.3584C4.47158 24.264 4 22.9079 4 21.2901C4 19.6723 4.47232 18.3171 5.41696 17.2244C6.36158 16.1317 7.53211 15.5854 8.92854 15.5854ZM8.92632 25.5659C9.97053 25.5659 10.8463 25.1561 11.5537 24.3366C12.2611 23.5171 12.6147 22.5024 12.6147 21.2927C12.6147 20.0829 12.2611 19.0683 11.5537 18.2488C10.8463 17.4293 9.97053 17.0195 8.92632 17.0195C7.88211 17.0195 7.00632 17.4293 6.29895 18.2488C5.59158 19.0683 5.23789 20.0829 5.23789 21.2927C5.23789 22.5024 5.59158 23.5171 6.29895 24.3366C7.00632 25.1561 7.88211 25.5659 8.92632 25.5659ZM23.0759 15.5854C24.4723 15.5854 25.6421 16.1326 26.5853 17.227C27.5284 18.3213 28 19.6774 28 21.2953C28 22.9131 27.5277 24.2683 26.583 25.361C25.6384 26.4537 24.4679 27 23.0715 27C21.675 27 20.5053 26.4528 19.5621 25.3584C18.6189 24.264 18.1474 22.9079 18.1474 21.2901C18.1474 19.6723 18.6197 18.3171 19.5643 17.2244C20.509 16.1317 21.6795 15.5854 23.0759 15.5854ZM23.0737 25.5659C24.1179 25.5659 24.9937 25.1561 25.7011 24.3366C26.4084 23.5171 26.7621 22.5024 26.7621 21.2927C26.7621 20.0829 26.4084 19.0683 25.7011 18.2488C24.9937 17.4293 24.1179 17.0195 23.0737 17.0195C22.0295 17.0195 21.1537 17.4293 20.4463 18.2488C19.7389 19.0683 19.3853 20.0829 19.3853 21.2927C19.3853 22.5024 19.7389 23.5171 20.4463 24.3366C21.1537 25.1561 22.0295 25.5659 23.0737 25.5659Z" fill="#5C6BC0"/>
</svg>
