<svg width="142" height="39" viewBox="0 0 142 39" fill="none" xmlns="http://www.w3.org/2000/svg">
<path d="M0.441406 0H5.14844V25.4883L4.69922 30H0.441406V0ZM18.9375 19.2383V19.6484C18.9375 21.2109 18.7617 22.6497 18.4102 23.9648C18.0716 25.2669 17.5508 26.3997 16.8477 27.3633C16.1576 28.3268 15.2982 29.0755 14.2695 29.6094C13.2539 30.1302 12.0755 30.3906 10.7344 30.3906C9.41927 30.3906 8.27344 30.1432 7.29688 29.6484C6.32031 29.1536 5.5 28.4505 4.83594 27.5391C4.1849 26.6276 3.65755 25.5404 3.25391 24.2773C2.85026 23.0143 2.5638 21.6211 2.39453 20.0977V18.7891C2.5638 17.2526 2.85026 15.8594 3.25391 14.6094C3.65755 13.3464 4.1849 12.2591 4.83594 11.3477C5.5 10.4232 6.3138 9.71354 7.27734 9.21875C8.25391 8.72396 9.39323 8.47656 10.6953 8.47656C12.0495 8.47656 13.2409 8.73698 14.2695 9.25781C15.3112 9.77865 16.1771 10.5208 16.8672 11.4844C17.5573 12.4349 18.0716 13.5677 18.4102 14.8828C18.7617 16.1979 18.9375 17.6497 18.9375 19.2383ZM14.2305 19.6484V19.2383C14.2305 18.2878 14.1523 17.3958 13.9961 16.5625C13.8398 15.7161 13.5794 14.974 13.2148 14.3359C12.8633 13.6979 12.3815 13.1966 11.7695 12.832C11.1706 12.4544 10.4219 12.2656 9.52344 12.2656C8.6901 12.2656 7.97396 12.4089 7.375 12.6953C6.77604 12.9818 6.27474 13.3724 5.87109 13.8672C5.46745 14.362 5.14844 14.9349 4.91406 15.5859C4.69271 16.237 4.54297 16.9401 4.46484 17.6953V21.2305C4.58203 22.207 4.82943 23.1055 5.20703 23.9258C5.59766 24.7331 6.14453 25.3841 6.84766 25.8789C7.55078 26.3607 8.45573 26.6016 9.5625 26.6016C10.4349 26.6016 11.1706 26.4258 11.7695 26.0742C12.3685 25.7227 12.8438 25.2344 13.1953 24.6094C13.5599 23.9714 13.8203 23.2292 13.9766 22.3828C14.1458 21.5365 14.2305 20.625 14.2305 19.6484Z" fill="white"/>
<path d="M27.9609 8.86719V30H23.2344V8.86719H27.9609ZM22.9219 3.32031C22.9219 2.60417 23.1562 2.01172 23.625 1.54297C24.1068 1.0612 24.7708 0.820312 25.6172 0.820312C26.4505 0.820312 27.1081 1.0612 27.5898 1.54297C28.0716 2.01172 28.3125 2.60417 28.3125 3.32031C28.3125 4.02344 28.0716 4.60938 27.5898 5.07812C27.1081 5.54688 26.4505 5.78125 25.6172 5.78125C24.7708 5.78125 24.1068 5.54688 23.625 5.07812C23.1562 4.60938 22.9219 4.02344 22.9219 3.32031Z" fill="white"/>
<path d="M37.8633 0V30H33.1367V0H37.8633ZM50.9883 8.86719L41.7891 19.0625L36.75 24.2188L35.5195 20.2344L39.3281 15.5273L45.3047 8.86719H50.9883ZM46.3203 30L39.4648 20.0781L42.4336 16.7773L51.7695 30H46.3203Z" fill="white"/>
<path d="M65.832 24.2773C65.832 23.8086 65.7148 23.3854 65.4805 23.0078C65.2461 22.6172 64.7969 22.2656 64.1328 21.9531C63.4818 21.6406 62.5182 21.3542 61.2422 21.0938C60.1224 20.8464 59.0938 20.5534 58.1562 20.2148C57.2318 19.8633 56.4375 19.4401 55.7734 18.9453C55.1094 18.4505 54.5951 17.8646 54.2305 17.1875C53.8659 16.5104 53.6836 15.7292 53.6836 14.8438C53.6836 13.9844 53.8724 13.1706 54.25 12.4023C54.6276 11.6341 55.168 10.957 55.8711 10.3711C56.5742 9.78516 57.4271 9.32292 58.4297 8.98438C59.4453 8.64583 60.5781 8.47656 61.8281 8.47656C63.599 8.47656 65.1159 8.77604 66.3789 9.375C67.6549 9.96094 68.6315 10.7617 69.3086 11.7773C69.9857 12.7799 70.3242 13.9128 70.3242 15.1758H65.6172C65.6172 14.6159 65.474 14.0951 65.1875 13.6133C64.9141 13.1185 64.4974 12.7214 63.9375 12.4219C63.3776 12.1094 62.6745 11.9531 61.8281 11.9531C61.0208 11.9531 60.3503 12.0833 59.8164 12.3438C59.2956 12.5911 58.9049 12.9167 58.6445 13.3203C58.3971 13.724 58.2734 14.1667 58.2734 14.6484C58.2734 15 58.3385 15.319 58.4688 15.6055C58.612 15.8789 58.8464 16.1328 59.1719 16.3672C59.4974 16.5885 59.9401 16.7969 60.5 16.9922C61.0729 17.1875 61.7891 17.3763 62.6484 17.5586C64.263 17.8971 65.6497 18.3333 66.8086 18.8672C67.9805 19.388 68.8789 20.0651 69.5039 20.8984C70.1289 21.7188 70.4414 22.7604 70.4414 24.0234C70.4414 24.9609 70.2396 25.8203 69.8359 26.6016C69.4453 27.3698 68.8724 28.0404 68.1172 28.6133C67.362 29.1732 66.457 29.6094 65.4023 29.9219C64.3607 30.2344 63.1888 30.3906 61.8867 30.3906C59.9727 30.3906 58.3516 30.0521 57.0234 29.375C55.6953 28.6849 54.6862 27.806 53.9961 26.7383C53.319 25.6576 52.9805 24.5378 52.9805 23.3789H57.5312C57.5833 24.2513 57.8242 24.9479 58.2539 25.4688C58.6966 25.9766 59.2435 26.3477 59.8945 26.582C60.5586 26.8034 61.2422 26.9141 61.9453 26.9141C62.7917 26.9141 63.5013 26.8034 64.0742 26.582C64.6471 26.3477 65.0833 26.0352 65.3828 25.6445C65.6823 25.2409 65.832 24.7852 65.832 24.2773Z" fill="white"/>
<path d="M84.25 8.86719V12.3047H72.3359V8.86719H84.25ZM75.7734 3.69141H80.4805V24.1602C80.4805 24.8112 80.5716 25.3125 80.7539 25.6641C80.9492 26.0026 81.2161 26.2305 81.5547 26.3477C81.8932 26.4648 82.2904 26.5234 82.7461 26.5234C83.0716 26.5234 83.3841 26.5039 83.6836 26.4648C83.9831 26.4258 84.224 26.3867 84.4062 26.3477L84.4258 29.9414C84.0352 30.0586 83.5794 30.1628 83.0586 30.2539C82.5508 30.3451 81.9648 30.3906 81.3008 30.3906C80.2201 30.3906 79.263 30.2018 78.4297 29.8242C77.5964 29.4336 76.9453 28.8021 76.4766 27.9297C76.0078 27.0573 75.7734 25.8984 75.7734 24.4531V3.69141Z" fill="white"/>
<path d="M92.6094 12.8906V30H87.9023V8.86719H92.3945L92.6094 12.8906ZM99.0742 8.73047L99.0352 13.1055C98.7487 13.0534 98.4362 13.0143 98.0977 12.9883C97.7721 12.9622 97.4466 12.9492 97.1211 12.9492C96.3138 12.9492 95.6042 13.0664 94.9922 13.3008C94.3802 13.5221 93.8659 13.8477 93.4492 14.2773C93.0456 14.694 92.7331 15.2018 92.5117 15.8008C92.2904 16.3997 92.1602 17.0703 92.1211 17.8125L91.0469 17.8906C91.0469 16.5625 91.1771 15.332 91.4375 14.1992C91.6979 13.0664 92.0885 12.0703 92.6094 11.2109C93.1432 10.3516 93.8073 9.68099 94.6016 9.19922C95.4089 8.71745 96.3398 8.47656 97.3945 8.47656C97.681 8.47656 97.987 8.5026 98.3125 8.55469C98.651 8.60677 98.9049 8.66536 99.0742 8.73047Z" fill="white"/>
<path d="M113.234 25.7617V15.6836C113.234 14.9284 113.098 14.2773 112.824 13.7305C112.551 13.1836 112.134 12.7604 111.574 12.4609C111.027 12.1615 110.337 12.0117 109.504 12.0117C108.736 12.0117 108.072 12.1419 107.512 12.4023C106.952 12.6628 106.516 13.0143 106.203 13.457C105.891 13.8997 105.734 14.401 105.734 14.9609H101.047C101.047 14.1276 101.249 13.3203 101.652 12.5391C102.056 11.7578 102.642 11.0612 103.41 10.4492C104.178 9.83724 105.096 9.35547 106.164 9.00391C107.232 8.65234 108.43 8.47656 109.758 8.47656C111.346 8.47656 112.753 8.74349 113.977 9.27734C115.214 9.8112 116.184 10.6185 116.887 11.6992C117.603 12.7669 117.961 14.1081 117.961 15.7227V25.1172C117.961 26.0807 118.026 26.9466 118.156 27.7148C118.299 28.4701 118.501 29.1276 118.762 29.6875V30H113.938C113.716 29.4922 113.54 28.8477 113.41 28.0664C113.293 27.2721 113.234 26.5039 113.234 25.7617ZM113.918 17.1484L113.957 20.0586H110.578C109.706 20.0586 108.938 20.1432 108.273 20.3125C107.609 20.4688 107.056 20.7031 106.613 21.0156C106.171 21.3281 105.839 21.7057 105.617 22.1484C105.396 22.5911 105.285 23.0924 105.285 23.6523C105.285 24.2122 105.415 24.7266 105.676 25.1953C105.936 25.651 106.314 26.0091 106.809 26.2695C107.316 26.5299 107.928 26.6602 108.645 26.6602C109.608 26.6602 110.448 26.4648 111.164 26.0742C111.893 25.6706 112.466 25.1823 112.883 24.6094C113.299 24.0234 113.521 23.4701 113.547 22.9492L115.07 25.0391C114.914 25.5729 114.647 26.1458 114.27 26.7578C113.892 27.3698 113.397 27.9557 112.785 28.5156C112.186 29.0625 111.464 29.5117 110.617 29.8633C109.784 30.2148 108.82 30.3906 107.727 30.3906C106.346 30.3906 105.116 30.1172 104.035 29.5703C102.954 29.0104 102.108 28.2617 101.496 27.3242C100.884 26.3737 100.578 25.2995 100.578 24.1016C100.578 22.9818 100.786 21.9922 101.203 21.1328C101.633 20.2604 102.258 19.5312 103.078 18.9453C103.911 18.3594 104.927 17.9167 106.125 17.6172C107.323 17.3047 108.69 17.1484 110.227 17.1484H113.918Z" fill="white"/>
<path d="M127.609 12.9297V38.125H122.902V8.86719H127.238L127.609 12.9297ZM141.379 19.2383V19.6484C141.379 21.1849 141.197 22.6107 140.832 23.9258C140.48 25.2279 139.953 26.3672 139.25 27.3438C138.56 28.3073 137.707 29.056 136.691 29.5898C135.676 30.1237 134.504 30.3906 133.176 30.3906C131.861 30.3906 130.708 30.1497 129.719 29.668C128.742 29.1732 127.915 28.4766 127.238 27.5781C126.561 26.6797 126.014 25.625 125.598 24.4141C125.194 23.1901 124.908 21.849 124.738 20.3906V18.8086C124.908 17.2591 125.194 15.8529 125.598 14.5898C126.014 13.3268 126.561 12.2396 127.238 11.3281C127.915 10.4167 128.742 9.71354 129.719 9.21875C130.695 8.72396 131.835 8.47656 133.137 8.47656C134.465 8.47656 135.643 8.73698 136.672 9.25781C137.701 9.76562 138.566 10.4948 139.27 11.4453C139.973 12.3828 140.5 13.5156 140.852 14.8438C141.203 16.1589 141.379 17.6237 141.379 19.2383ZM136.672 19.6484V19.2383C136.672 18.2617 136.581 17.3568 136.398 16.5234C136.216 15.6771 135.93 14.9349 135.539 14.2969C135.148 13.6589 134.647 13.1641 134.035 12.8125C133.436 12.4479 132.714 12.2656 131.867 12.2656C131.034 12.2656 130.318 12.4089 129.719 12.6953C129.12 12.9688 128.618 13.3529 128.215 13.8477C127.811 14.3424 127.499 14.9219 127.277 15.5859C127.056 16.237 126.9 16.9466 126.809 17.7148V21.5039C126.965 22.4414 127.232 23.3008 127.609 24.082C127.987 24.8633 128.521 25.4883 129.211 25.957C129.914 26.4128 130.812 26.6406 131.906 26.6406C132.753 26.6406 133.475 26.4583 134.074 26.0938C134.673 25.7292 135.161 25.2279 135.539 24.5898C135.93 23.9388 136.216 23.1901 136.398 22.3438C136.581 21.4974 136.672 20.599 136.672 19.6484Z" fill="white"/>
</svg>
